<svg width="19" height="18" viewBox="0 0 19 18" fill="none" xmlns="http://www.w3.org/2000/svg">
<path d="M4.64812 14.625L0.75 17.6875V1.5C0.75 1.26794 0.842187 1.04538 1.00628 0.881282C1.17038 0.717187 1.39294 0.625 1.625 0.625H17.375C17.6071 0.625 17.8296 0.717187 17.9937 0.881282C18.1578 1.04538 18.25 1.26794 18.25 1.5V13.75C18.25 13.9821 18.1578 14.2046 17.9937 14.3687C17.8296 14.5328 17.6071 14.625 17.375 14.625H4.64812ZM4.04262 12.875H16.5V2.375H2.5V14.0869L4.04262 12.875ZM8.625 6.75H10.375V8.5H8.625V6.75ZM5.125 6.75H6.875V8.5H5.125V6.75ZM12.125 6.75H13.875V8.5H12.125V6.75Z" fill="#505050"/>
</svg>
