<svg width="17" height="18" viewBox="0 0 17 18" fill="none" xmlns="http://www.w3.org/2000/svg">
<path d="M2.375 8.9375C2.375 9.21138 2.77838 9.68825 3.71375 10.1564C4.92475 10.7619 6.64237 11.125 8.5 11.125C10.3576 11.125 12.0752 10.7619 13.2862 10.1564C14.2216 9.68825 14.625 9.21138 14.625 8.9375V7.03788C13.1812 7.93038 10.9736 8.5 8.5 8.5C6.02638 8.5 3.81875 7.9295 2.375 7.03788V8.9375ZM14.625 11.4129C13.1812 12.3054 10.9736 12.875 8.5 12.875C6.02638 12.875 3.81875 12.3045 2.375 11.4129V13.3125C2.375 13.5864 2.77838 14.0632 3.71375 14.5314C4.92475 15.1369 6.64237 15.5 8.5 15.5C10.3576 15.5 12.0752 15.1369 13.2862 14.5314C14.2216 14.0632 14.625 13.5864 14.625 13.3125V11.4129ZM0.625 13.3125V4.5625C0.625 2.38813 4.15125 0.625 8.5 0.625C12.8488 0.625 16.375 2.38813 16.375 4.5625V13.3125C16.375 15.4869 12.8488 17.25 8.5 17.25C4.15125 17.25 0.625 15.4869 0.625 13.3125ZM8.5 6.75C10.3576 6.75 12.0752 6.38687 13.2862 5.78137C14.2216 5.31325 14.625 4.83637 14.625 4.5625C14.625 4.28863 14.2216 3.81175 13.2862 3.34362C12.0752 2.73812 10.3576 2.375 8.5 2.375C6.64237 2.375 4.92475 2.73812 3.71375 3.34362C2.77838 3.81175 2.375 4.28863 2.375 4.5625C2.375 4.83637 2.77838 5.31325 3.71375 5.78137C4.92475 6.38687 6.64237 6.75 8.5 6.75Z" fill="#505050"/>
</svg>
