<svg width="17" height="16" viewBox="0 0 17 16" fill="none" xmlns="http://www.w3.org/2000/svg">
<path d="M7.41325 7.34932L14.2811 0.481445L15.5184 1.7187L14.2811 2.95682L16.4459 5.12157L15.2086 6.35969L13.043 4.19407L11.8058 5.43132L13.6616 7.28719L12.4244 8.52532L10.5685 6.66857L8.6505 8.58657C9.2459 9.49132 9.48468 10.5847 9.32068 11.6553C9.15668 12.7259 8.60154 13.6977 7.76261 14.3827C6.92368 15.0677 5.86055 15.4174 4.77878 15.364C3.69701 15.3106 2.67345 14.8581 1.906 14.0938C1.1369 13.3276 0.680149 12.3028 0.624522 11.2186C0.568895 10.1344 0.918365 9.06822 1.60501 8.22731C2.29166 7.38641 3.26642 6.83083 4.33987 6.66857C5.41331 6.5063 6.50874 6.74894 7.41325 7.34932ZM6.85588 12.8557C7.11078 12.6146 7.31476 12.3248 7.45576 12.0035C7.59676 11.6823 7.67192 11.336 7.6768 10.9851C7.68168 10.6343 7.61618 10.2861 7.48416 9.96098C7.35215 9.6359 7.15631 9.34058 6.90821 9.09249C6.66011 8.84439 6.36479 8.64854 6.03971 8.51653C5.71463 8.38452 5.36638 8.31902 5.01555 8.3239C4.66472 8.32877 4.31843 8.40394 3.99715 8.54494C3.67586 8.68594 3.3861 8.88992 3.145 9.14482C2.66684 9.6399 2.40225 10.303 2.40823 10.9912C2.41421 11.6795 2.69028 12.3379 3.17698 12.8246C3.66367 13.3113 4.32205 13.5874 5.01032 13.5933C5.69859 13.5993 6.36167 13.3347 6.85675 12.8566L6.85588 12.8557Z" fill="#505050"/>
</svg>
