<svg width="19" height="18" viewBox="0 0 19 18" fill="none" xmlns="http://www.w3.org/2000/svg">
<path d="M4.04262 12.875H16.5V2.375H2.5V14.0869L4.04262 12.875ZM4.64812 14.625L0.75 17.6875V1.5C0.75 1.26794 0.842187 1.04538 1.00628 0.881282C1.17038 0.717187 1.39294 0.625 1.625 0.625H17.375C17.6071 0.625 17.8296 0.717187 17.9937 0.881282C18.1578 1.04538 18.25 1.26794 18.25 1.5V13.75C18.25 13.9821 18.1578 14.2046 17.9937 14.3687C17.8296 14.5328 17.6071 14.625 17.375 14.625H4.64812ZM8.625 10.25H10.375V12H8.625V10.25ZM6.49613 5.71137C6.60981 5.14244 6.88272 4.61749 7.2831 4.1976C7.68348 3.77772 8.19486 3.48016 8.75775 3.33956C9.32063 3.19896 9.91187 3.2211 10.4627 3.4034C11.0135 3.5857 11.5012 3.92066 11.869 4.36932C12.2369 4.81797 12.4698 5.36186 12.5406 5.9377C12.6114 6.51354 12.5172 7.09765 12.2691 7.62207C12.0209 8.14648 11.6289 8.58964 11.1386 8.89996C10.6484 9.21029 10.0802 9.37502 9.5 9.375H8.625V7.625H9.5C9.74857 7.62498 9.99202 7.55438 10.202 7.42141C10.412 7.28844 10.58 7.09857 10.6863 6.87389C10.7926 6.6492 10.8329 6.39895 10.8026 6.15224C10.7722 5.90553 10.6725 5.67251 10.5149 5.4803C10.3572 5.28808 10.1483 5.14458 9.91232 5.06647C9.67634 4.98837 9.42303 4.97888 9.18187 5.03912C8.94071 5.09935 8.72161 5.22683 8.55007 5.40671C8.37853 5.5866 8.26159 5.8115 8.21288 6.05525L6.49613 5.71137Z" fill="#505050"/>
</svg>
