<svg width="18" height="20" viewBox="0 0 18 20" fill="none" xmlns="http://www.w3.org/2000/svg">
<path d="M9.25 12.4705V14.2992C8.45806 14.0193 7.61049 13.9334 6.77848 14.0488C5.94647 14.1643 5.1543 14.4777 4.4685 14.9627C3.78271 15.4477 3.2233 16.0902 2.83727 16.8362C2.45123 17.5823 2.24984 18.41 2.25 19.25L0.5 19.2491C0.499729 18.1807 0.744056 17.1263 1.21426 16.1668C1.68447 15.2074 2.36807 14.3683 3.21269 13.7139C4.05731 13.0595 5.04053 12.6071 6.08701 12.3914C7.13349 12.1758 8.21545 12.2025 9.25 12.4696V12.4705ZM7.5 11.375C4.59937 11.375 2.25 9.02563 2.25 6.125C2.25 3.22438 4.59937 0.875 7.5 0.875C10.4006 0.875 12.75 3.22438 12.75 6.125C12.75 9.02563 10.4006 11.375 7.5 11.375ZM7.5 9.625C9.43375 9.625 11 8.05875 11 6.125C11 4.19125 9.43375 2.625 7.5 2.625C5.56625 2.625 4 4.19125 4 6.125C4 8.05875 5.56625 9.625 7.5 9.625ZM12.75 14.875V12.25H14.5V14.875H17.125V16.625H14.5V19.25H12.75V16.625H10.125V14.875H12.75Z" fill="#505050"/>
</svg>
