<svg width="19" height="20" viewBox="0 0 19 20" fill="none" xmlns="http://www.w3.org/2000/svg">
<path d="M16.5 13.875H18.25V15.625H0.75V13.875H2.5V7.75C2.5 5.89348 3.2375 4.11301 4.55025 2.80025C5.86301 1.4875 7.64348 0.75 9.5 0.75C11.3565 0.75 13.137 1.4875 14.4497 2.80025C15.7625 4.11301 16.5 5.89348 16.5 7.75V13.875ZM14.75 13.875V7.75C14.75 6.35761 14.1969 5.02226 13.2123 4.03769C12.2277 3.05312 10.8924 2.5 9.5 2.5C8.10761 2.5 6.77226 3.05312 5.78769 4.03769C4.80312 5.02226 4.25 6.35761 4.25 7.75V13.875H14.75ZM6.875 17.375H12.125V19.125H6.875V17.375Z" fill="#505050"/>
</svg>
